<svg xmlns="http://www.w3.org/2000/svg" xmlns:xlink="http://www.w3.org/1999/xlink" width="164.89pt" height="159.06pt" viewBox="0 0 164.89 159.06" version="1.2">
<defs>
<clipPath id="clip1">
  <path d="M 0.429688 33 L 20 33 L 20 76 L 0.429688 76 Z M 0.429688 33 "></path>
</clipPath>
<clipPath id="clip2">
  <path d="M 0.429688 64 L 20 64 L 20 91 L 0.429688 91 Z M 0.429688 64 "></path>
</clipPath>
<clipPath id="clip3">
  <path d="M 0.429688 81 L 20 81 L 20 125 L 0.429688 125 Z M 0.429688 81 "></path>
</clipPath>
<clipPath id="clip4">
  <path d="M 45 146 L 74 146 L 74 158.125 L 45 158.125 Z M 45 146 "></path>
</clipPath>
<clipPath id="clip5">
  <path d="M 52 148 L 74 148 L 74 158.125 L 52 158.125 Z M 52 148 "></path>
</clipPath>
<clipPath id="clip6">
  <path d="M 53 147 L 75 147 L 75 158.125 L 53 158.125 Z M 53 147 "></path>
</clipPath>
<clipPath id="clip7">
  <path d="M 94 142 L 123 142 L 123 158.125 L 94 158.125 Z M 94 142 "></path>
</clipPath>
<clipPath id="clip8">
  <path d="M 94 146 L 123 146 L 123 158.125 L 94 158.125 Z M 94 146 "></path>
</clipPath>
<clipPath id="clip9">
  <path d="M 94 149 L 116 149 L 116 158.125 L 94 158.125 Z M 94 149 "></path>
</clipPath>
<clipPath id="clip10">
  <path d="M 93 147 L 116 147 L 116 158.125 L 93 158.125 Z M 93 147 "></path>
</clipPath>
<clipPath id="clip11">
  <path d="M 67 157 L 101 157 L 101 158.125 L 67 158.125 Z M 67 157 "></path>
</clipPath>
<clipPath id="clip12">
  <path d="M 111 127 L 150 127 L 150 158.125 L 111 158.125 Z M 111 127 "></path>
</clipPath>
<clipPath id="clip13">
  <path d="M 149 64 L 164.351563 64 L 164.351563 92 L 149 92 Z M 149 64 "></path>
</clipPath>
<clipPath id="clip14">
  <path d="M 163 70 L 164.351563 70 L 164.351563 89 L 163 89 Z M 163 70 "></path>
</clipPath>
<clipPath id="clip15">
  <path d="M 163 77 L 164.351563 77 L 164.351563 89 L 163 89 Z M 163 77 "></path>
</clipPath>
<clipPath id="clip16">
  <path d="M 148 82 L 164.351563 82 L 164.351563 125 L 148 125 Z M 148 82 "></path>
</clipPath>
<clipPath id="clip17">
  <path d="M 148 33 L 164.351563 33 L 164.351563 76 L 148 76 Z M 148 33 "></path>
</clipPath>
</defs>
<g id="surface1">
<path style="fill:none;stroke-width:0.3985;stroke-linecap:butt;stroke-linejoin:miter;stroke:rgb(0%,0%,0%);stroke-opacity:1;stroke-miterlimit:10;" d="M 24.161968 7.849574 L -0.0191583 25.41763 " transform="matrix(0.994125,0,0,-0.994125,84.124515,79.002676)"></path>
<path style="fill:none;stroke-width:0.3985;stroke-linecap:butt;stroke-linejoin:miter;stroke:rgb(0%,0%,0%);stroke-opacity:1;stroke-miterlimit:10;" d="M -0.0191583 25.41763 L -0.0191583 55.30808 " transform="matrix(0.994125,0,0,-0.994125,84.124515,79.002676)"></path>
<path style="fill:none;stroke-width:0.3985;stroke-linecap:butt;stroke-linejoin:miter;stroke:rgb(0%,0%,0%);stroke-opacity:1;stroke-miterlimit:10;" d="M -0.0191583 53.315907 L -0.0191583 27.409803 " transform="matrix(0.994125,0,0,-0.994125,84.124515,79.002676)"></path>
<path style="fill:none;stroke-width:0.3985;stroke-linecap:butt;stroke-linejoin:miter;stroke:rgb(0%,0%,0%);stroke-opacity:1;stroke-miterlimit:10;" d="M -2.011331 53.315907 L -2.011331 27.409803 " transform="matrix(0.994125,0,0,-0.994125,84.124515,79.002676)"></path>
<path style="fill:none;stroke-width:0.3985;stroke-linecap:butt;stroke-linejoin:miter;stroke:rgb(0%,0%,0%);stroke-opacity:1;stroke-miterlimit:10;" d="M -0.0191583 55.30808 L 28.067727 65.52828 " transform="matrix(0.994125,0,0,-0.994125,84.124515,79.002676)"></path>
<path style="fill:none;stroke-width:0.3985;stroke-linecap:butt;stroke-linejoin:miter;stroke:rgb(0%,0%,0%);stroke-opacity:1;stroke-miterlimit:10;" d="M 28.067727 65.52828 L 53.875598 46.643897 " transform="matrix(0.994125,0,0,-0.994125,84.124515,79.002676)"></path>
<path style="fill:none;stroke-width:0.3985;stroke-linecap:butt;stroke-linejoin:miter;stroke:rgb(0%,0%,0%);stroke-opacity:1;stroke-miterlimit:10;" d="M 52.264571 47.818768 L 29.674825 64.353409 " transform="matrix(0.994125,0,0,-0.994125,84.124515,79.002676)"></path>
<path style="fill:none;stroke-width:0.3985;stroke-linecap:butt;stroke-linejoin:miter;stroke:rgb(0%,0%,0%);stroke-opacity:1;stroke-miterlimit:10;" d="M 51.0897 46.21167 L 28.499954 62.746311 " transform="matrix(0.994125,0,0,-0.994125,84.124515,79.002676)"></path>
<path style="fill:none;stroke-width:0.3985;stroke-linecap:butt;stroke-linejoin:miter;stroke:rgb(0%,0%,0%);stroke-opacity:1;stroke-miterlimit:10;" d="M 28.067727 65.52828 L 16.539059 79.265235 " transform="matrix(0.994125,0,0,-0.994125,84.124515,79.002676)"></path>
<path style="fill:none;stroke-width:0.3985;stroke-linecap:butt;stroke-linejoin:miter;stroke:rgb(0%,0%,0%);stroke-opacity:1;stroke-miterlimit:10;" d="M 16.539059 79.265235 L 33.596301 73.724872 " transform="matrix(0.994125,0,0,-0.994125,84.124515,79.002676)"></path>
<path style="fill:none;stroke-width:0.3985;stroke-linecap:butt;stroke-linejoin:miter;stroke:rgb(0%,0%,0%);stroke-opacity:1;stroke-miterlimit:10;" d="M 33.596301 73.724872 L 23.647225 76.958715 " transform="matrix(0.994125,0,0,-0.994125,84.124515,79.002676)"></path>
<path style="fill:none;stroke-width:0.3985;stroke-linecap:butt;stroke-linejoin:miter;stroke:rgb(0%,0%,0%);stroke-opacity:1;stroke-miterlimit:10;" d="M 32.979396 71.830933 L 23.03032 75.060846 " transform="matrix(0.994125,0,0,-0.994125,84.124515,79.002676)"></path>
<path style="fill:none;stroke-width:0.3985;stroke-linecap:butt;stroke-linejoin:miter;stroke:rgb(0%,0%,0%);stroke-opacity:1;stroke-miterlimit:10;" d="M 33.596301 73.724872 L 60.193969 54.400404 " transform="matrix(0.994125,0,0,-0.994125,84.124515,79.002676)"></path>
<path style="fill:none;stroke-width:0.3985;stroke-linecap:butt;stroke-linejoin:miter;stroke:rgb(0%,0%,0%);stroke-opacity:1;stroke-miterlimit:10;" d="M 16.539059 79.265235 L -16.337686 79.265235 " transform="matrix(0.994125,0,0,-0.994125,84.124515,79.002676)"></path>
<path style="fill:none;stroke-width:0.3985;stroke-linecap:butt;stroke-linejoin:miter;stroke:rgb(0%,0%,0%);stroke-opacity:1;stroke-miterlimit:10;" d="M -16.337686 79.265235 L -33.390999 73.724872 " transform="matrix(0.994125,0,0,-0.994125,84.124515,79.002676)"></path>
<path style="fill:none;stroke-width:0.3985;stroke-linecap:butt;stroke-linejoin:miter;stroke:rgb(0%,0%,0%);stroke-opacity:1;stroke-miterlimit:10;" d="M -33.390999 73.724872 L -23.441923 76.958715 " transform="matrix(0.994125,0,0,-0.994125,84.124515,79.002676)"></path>
<path style="fill:none;stroke-width:0.3985;stroke-linecap:butt;stroke-linejoin:miter;stroke:rgb(0%,0%,0%);stroke-opacity:1;stroke-miterlimit:10;" d="M -32.778023 71.830933 L -22.828947 75.060846 " transform="matrix(0.994125,0,0,-0.994125,84.124515,79.002676)"></path>
<path style="fill:none;stroke-width:0.3985;stroke-linecap:butt;stroke-linejoin:miter;stroke:rgb(0%,0%,0%);stroke-opacity:1;stroke-miterlimit:10;" d="M -16.337686 79.265235 L -27.862425 65.52828 " transform="matrix(0.994125,0,0,-0.994125,84.124515,79.002676)"></path>
<path style="fill:none;stroke-width:0.3985;stroke-linecap:butt;stroke-linejoin:miter;stroke:rgb(0%,0%,0%);stroke-opacity:1;stroke-miterlimit:10;" d="M -27.862425 65.52828 L 0.220531 55.30808 " transform="matrix(0.994125,0,0,-0.994125,84.124515,79.002676)"></path>
<path style="fill:none;stroke-width:0.3985;stroke-linecap:butt;stroke-linejoin:miter;stroke:rgb(0%,0%,0%);stroke-opacity:1;stroke-miterlimit:10;" d="M 0.000488329 25.405842 L -24.180638 7.837786 " transform="matrix(0.994125,0,0,-0.994125,84.124515,79.002676)"></path>
<path style="fill:none;stroke-width:0.3985;stroke-linecap:butt;stroke-linejoin:miter;stroke:rgb(0%,0%,0%);stroke-opacity:1;stroke-miterlimit:10;" d="M -24.180638 7.837786 L -52.605447 17.071723 " transform="matrix(0.994125,0,0,-0.994125,84.124515,79.002676)"></path>
<path style="fill:none;stroke-width:0.3985;stroke-linecap:butt;stroke-linejoin:miter;stroke:rgb(0%,0%,0%);stroke-opacity:1;stroke-miterlimit:10;" d="M -50.711507 16.458746 L -26.074578 8.454691 " transform="matrix(0.994125,0,0,-0.994125,84.124515,79.002676)"></path>
<path style="fill:none;stroke-width:0.3985;stroke-linecap:butt;stroke-linejoin:miter;stroke:rgb(0%,0%,0%);stroke-opacity:1;stroke-miterlimit:10;" d="M -51.328413 14.560878 L -26.691483 6.556823 " transform="matrix(0.994125,0,0,-0.994125,84.124515,79.002676)"></path>
<path style="fill:none;stroke-width:0.3985;stroke-linecap:butt;stroke-linejoin:miter;stroke:rgb(0%,0%,0%);stroke-opacity:1;stroke-miterlimit:10;" d="M -52.605447 17.071723 L -53.65065 46.942526 " transform="matrix(0.994125,0,0,-0.994125,84.124515,79.002676)"></path>
<path style="fill:none;stroke-width:0.3985;stroke-linecap:butt;stroke-linejoin:miter;stroke:rgb(0%,0%,0%);stroke-opacity:1;stroke-miterlimit:10;" d="M -53.65065 46.942526 L -27.71311 65.650089 " transform="matrix(0.994125,0,0,-0.994125,84.124515,79.002676)"></path>
<path style="fill:none;stroke-width:0.3985;stroke-linecap:butt;stroke-linejoin:miter;stroke:rgb(0%,0%,0%);stroke-opacity:1;stroke-miterlimit:10;" d="M -29.328067 64.483077 L -52.031764 48.109539 " transform="matrix(0.994125,0,0,-0.994125,84.124515,79.002676)"></path>
<path style="fill:none;stroke-width:0.3985;stroke-linecap:butt;stroke-linejoin:miter;stroke:rgb(0%,0%,0%);stroke-opacity:1;stroke-miterlimit:10;" d="M -28.161054 62.86812 L -50.868681 46.494582 " transform="matrix(0.994125,0,0,-0.994125,84.124515,79.002676)"></path>
<path style="fill:none;stroke-width:0.3985;stroke-linecap:butt;stroke-linejoin:miter;stroke:rgb(0%,0%,0%);stroke-opacity:1;stroke-miterlimit:10;" d="M -53.65065 46.942526 L -70.275665 40.227293 " transform="matrix(0.994125,0,0,-0.994125,84.124515,79.002676)"></path>
<path style="fill:none;stroke-width:0.3985;stroke-linecap:butt;stroke-linejoin:miter;stroke:rgb(0%,0%,0%);stroke-opacity:1;stroke-miterlimit:10;" d="M -70.275665 40.227293 L -59.737189 54.734397 " transform="matrix(0.994125,0,0,-0.994125,84.124515,79.002676)"></path>
<path style="fill:none;stroke-width:0.3985;stroke-linecap:butt;stroke-linejoin:miter;stroke:rgb(0%,0%,0%);stroke-opacity:1;stroke-miterlimit:10;" d="M -59.737189 54.734397 L -65.882669 46.27061 " transform="matrix(0.994125,0,0,-0.994125,84.124515,79.002676)"></path>
<path style="fill:none;stroke-width:0.3985;stroke-linecap:butt;stroke-linejoin:miter;stroke:rgb(0%,0%,0%);stroke-opacity:1;stroke-miterlimit:10;" d="M -58.122233 53.563455 L -64.271642 45.099668 " transform="matrix(0.994125,0,0,-0.994125,84.124515,79.002676)"></path>
<path style="fill:none;stroke-width:0.3985;stroke-linecap:butt;stroke-linejoin:miter;stroke:rgb(0%,0%,0%);stroke-opacity:1;stroke-miterlimit:10;" d="M -59.737189 54.734397 L -33.135592 74.058866 " transform="matrix(0.994125,0,0,-0.994125,84.124515,79.002676)"></path>
<g clip-path="url(#clip1)" clip-rule="nonzero">
<path style="fill:none;stroke-width:0.3985;stroke-linecap:butt;stroke-linejoin:miter;stroke:rgb(0%,0%,0%);stroke-opacity:1;stroke-miterlimit:10;" d="M -70.275665 40.227293 L -80.436925 8.957646 " transform="matrix(0.994125,0,0,-0.994125,84.124515,79.002676)"></path>
</g>
<path style="fill:none;stroke-width:0.3985;stroke-linecap:butt;stroke-linejoin:miter;stroke:rgb(0%,0%,0%);stroke-opacity:1;stroke-miterlimit:10;" d="M -80.436925 8.957646 L -80.436925 -8.975838 " transform="matrix(0.994125,0,0,-0.994125,84.124515,79.002676)"></path>
<path style="fill:none;stroke-width:0.3985;stroke-linecap:butt;stroke-linejoin:miter;stroke:rgb(0%,0%,0%);stroke-opacity:1;stroke-miterlimit:10;" d="M -80.436925 -8.975838 L -80.436925 1.484051 " transform="matrix(0.994125,0,0,-0.994125,84.124515,79.002676)"></path>
<path style="fill:none;stroke-width:0.3985;stroke-linecap:butt;stroke-linejoin:miter;stroke:rgb(0%,0%,0%);stroke-opacity:1;stroke-miterlimit:10;" d="M -78.444752 -8.975838 L -78.444752 1.484051 " transform="matrix(0.994125,0,0,-0.994125,84.124515,79.002676)"></path>
<g clip-path="url(#clip2)" clip-rule="nonzero">
<path style="fill:none;stroke-width:0.3985;stroke-linecap:butt;stroke-linejoin:miter;stroke:rgb(0%,0%,0%);stroke-opacity:1;stroke-miterlimit:10;" d="M -80.436925 8.957646 L -70.931864 -6.252809 " transform="matrix(0.994125,0,0,-0.994125,84.124515,79.002676)"></path>
</g>
<path style="fill:none;stroke-width:0.3985;stroke-linecap:butt;stroke-linejoin:miter;stroke:rgb(0%,0%,0%);stroke-opacity:1;stroke-miterlimit:10;" d="M -70.931864 -6.252809 L -52.530789 17.299624 " transform="matrix(0.994125,0,0,-0.994125,84.124515,79.002676)"></path>
<path style="fill:none;stroke-width:0.3985;stroke-linecap:butt;stroke-linejoin:miter;stroke:rgb(0%,0%,0%);stroke-opacity:1;stroke-miterlimit:10;" d="M -24.160992 7.849574 L -14.927055 -20.575234 " transform="matrix(0.994125,0,0,-0.994125,84.124515,79.002676)"></path>
<path style="fill:none;stroke-width:0.3985;stroke-linecap:butt;stroke-linejoin:miter;stroke:rgb(0%,0%,0%);stroke-opacity:1;stroke-miterlimit:10;" d="M -14.927055 -20.575234 L -32.495111 -44.756361 " transform="matrix(0.994125,0,0,-0.994125,84.124515,79.002676)"></path>
<path style="fill:none;stroke-width:0.3985;stroke-linecap:butt;stroke-linejoin:miter;stroke:rgb(0%,0%,0%);stroke-opacity:1;stroke-miterlimit:10;" d="M -31.324169 -43.141404 L -16.097997 -22.186262 " transform="matrix(0.994125,0,0,-0.994125,84.124515,79.002676)"></path>
<path style="fill:none;stroke-width:0.3985;stroke-linecap:butt;stroke-linejoin:miter;stroke:rgb(0%,0%,0%);stroke-opacity:1;stroke-miterlimit:10;" d="M -29.709212 -44.316276 L -14.48304 -23.357203 " transform="matrix(0.994125,0,0,-0.994125,84.124515,79.002676)"></path>
<path style="fill:none;stroke-width:0.3985;stroke-linecap:butt;stroke-linejoin:miter;stroke:rgb(0%,0%,0%);stroke-opacity:1;stroke-miterlimit:10;" d="M -32.495111 -44.756361 L -61.222478 -36.516546 " transform="matrix(0.994125,0,0,-0.994125,84.124515,79.002676)"></path>
<path style="fill:none;stroke-width:0.3985;stroke-linecap:butt;stroke-linejoin:miter;stroke:rgb(0%,0%,0%);stroke-opacity:1;stroke-miterlimit:10;" d="M -61.222478 -36.516546 L -70.998663 -6.06813 " transform="matrix(0.994125,0,0,-0.994125,84.124515,79.002676)"></path>
<path style="fill:none;stroke-width:0.3985;stroke-linecap:butt;stroke-linejoin:miter;stroke:rgb(0%,0%,0%);stroke-opacity:1;stroke-miterlimit:10;" d="M -70.389616 -7.965999 L -61.831525 -34.618677 " transform="matrix(0.994125,0,0,-0.994125,84.124515,79.002676)"></path>
<path style="fill:none;stroke-width:0.3985;stroke-linecap:butt;stroke-linejoin:miter;stroke:rgb(0%,0%,0%);stroke-opacity:1;stroke-miterlimit:10;" d="M -68.491747 -7.356952 L -59.937585 -34.00963 " transform="matrix(0.994125,0,0,-0.994125,84.124515,79.002676)"></path>
<path style="fill:none;stroke-width:0.3985;stroke-linecap:butt;stroke-linejoin:miter;stroke:rgb(0%,0%,0%);stroke-opacity:1;stroke-miterlimit:10;" d="M -61.222478 -36.516546 L -59.972949 -54.406807 " transform="matrix(0.994125,0,0,-0.994125,84.124515,79.002676)"></path>
<path style="fill:none;stroke-width:0.3985;stroke-linecap:butt;stroke-linejoin:miter;stroke:rgb(0%,0%,0%);stroke-opacity:1;stroke-miterlimit:10;" d="M -59.972949 -54.406807 L -70.515355 -39.899703 " transform="matrix(0.994125,0,0,-0.994125,84.124515,79.002676)"></path>
<path style="fill:none;stroke-width:0.3985;stroke-linecap:butt;stroke-linejoin:miter;stroke:rgb(0%,0%,0%);stroke-opacity:1;stroke-miterlimit:10;" d="M -70.515355 -39.899703 L -64.365946 -48.359561 " transform="matrix(0.994125,0,0,-0.994125,84.124515,79.002676)"></path>
<path style="fill:none;stroke-width:0.3985;stroke-linecap:butt;stroke-linejoin:miter;stroke:rgb(0%,0%,0%);stroke-opacity:1;stroke-miterlimit:10;" d="M -68.900398 -38.728761 L -62.754918 -47.188619 " transform="matrix(0.994125,0,0,-0.994125,84.124515,79.002676)"></path>
<g clip-path="url(#clip3)" clip-rule="nonzero">
<path style="fill:none;stroke-width:0.3985;stroke-linecap:butt;stroke-linejoin:miter;stroke:rgb(0%,0%,0%);stroke-opacity:1;stroke-miterlimit:10;" d="M -70.515355 -39.899703 L -80.672685 -8.630056 " transform="matrix(0.994125,0,0,-0.994125,84.124515,79.002676)"></path>
</g>
<path style="fill:none;stroke-width:0.3985;stroke-linecap:butt;stroke-linejoin:miter;stroke:rgb(0%,0%,0%);stroke-opacity:1;stroke-miterlimit:10;" d="M -59.972949 -54.406807 L -33.375282 -73.731276 " transform="matrix(0.994125,0,0,-0.994125,84.124515,79.002676)"></path>
<g clip-path="url(#clip4)" clip-rule="nonzero">
<path style="fill:none;stroke-width:0.3985;stroke-linecap:butt;stroke-linejoin:miter;stroke:rgb(0%,0%,0%);stroke-opacity:1;stroke-miterlimit:10;" d="M -33.375282 -73.731276 L -16.318039 -79.271638 " transform="matrix(0.994125,0,0,-0.994125,84.124515,79.002676)"></path>
</g>
<g clip-path="url(#clip5)" clip-rule="nonzero">
<path style="fill:none;stroke-width:0.3985;stroke-linecap:butt;stroke-linejoin:miter;stroke:rgb(0%,0%,0%);stroke-opacity:1;stroke-miterlimit:10;" d="M -16.318039 -79.271638 L -26.267115 -76.041725 " transform="matrix(0.994125,0,0,-0.994125,84.124515,79.002676)"></path>
</g>
<g clip-path="url(#clip6)" clip-rule="nonzero">
<path style="fill:none;stroke-width:0.3985;stroke-linecap:butt;stroke-linejoin:miter;stroke:rgb(0%,0%,0%);stroke-opacity:1;stroke-miterlimit:10;" d="M -15.705063 -77.377699 L -25.654139 -74.143856 " transform="matrix(0.994125,0,0,-0.994125,84.124515,79.002676)"></path>
</g>
<path style="fill:none;stroke-width:0.3985;stroke-linecap:butt;stroke-linejoin:miter;stroke:rgb(0%,0%,0%);stroke-opacity:1;stroke-miterlimit:10;" d="M -33.375282 -73.731276 L -15.972258 -69.39329 " transform="matrix(0.994125,0,0,-0.994125,84.124515,79.002676)"></path>
<path style="fill:none;stroke-width:0.3985;stroke-linecap:butt;stroke-linejoin:miter;stroke:rgb(0%,0%,0%);stroke-opacity:1;stroke-miterlimit:10;" d="M -15.972258 -69.39329 L -32.687648 -44.614905 " transform="matrix(0.994125,0,0,-0.994125,84.124515,79.002676)"></path>
<path style="fill:none;stroke-width:0.3985;stroke-linecap:butt;stroke-linejoin:miter;stroke:rgb(0%,0%,0%);stroke-opacity:1;stroke-miterlimit:10;" d="M -14.930984 -20.551658 L 14.955537 -20.551658 " transform="matrix(0.994125,0,0,-0.994125,84.124515,79.002676)"></path>
<path style="fill:none;stroke-width:0.3985;stroke-linecap:butt;stroke-linejoin:miter;stroke:rgb(0%,0%,0%);stroke-opacity:1;stroke-miterlimit:10;" d="M 14.955537 -20.551658 L 32.523593 -44.732785 " transform="matrix(0.994125,0,0,-0.994125,84.124515,79.002676)"></path>
<path style="fill:none;stroke-width:0.3985;stroke-linecap:butt;stroke-linejoin:miter;stroke:rgb(0%,0%,0%);stroke-opacity:1;stroke-miterlimit:10;" d="M 31.352651 -43.121758 L 16.126479 -22.166615 " transform="matrix(0.994125,0,0,-0.994125,84.124515,79.002676)"></path>
<path style="fill:none;stroke-width:0.3985;stroke-linecap:butt;stroke-linejoin:miter;stroke:rgb(0%,0%,0%);stroke-opacity:1;stroke-miterlimit:10;" d="M 32.963678 -41.950816 L 17.737506 -20.995673 " transform="matrix(0.994125,0,0,-0.994125,84.124515,79.002676)"></path>
<path style="fill:none;stroke-width:0.3985;stroke-linecap:butt;stroke-linejoin:miter;stroke:rgb(0%,0%,0%);stroke-opacity:1;stroke-miterlimit:10;" d="M 32.523593 -44.732785 L 15.812132 -69.511171 " transform="matrix(0.994125,0,0,-0.994125,84.124515,79.002676)"></path>
<path style="fill:none;stroke-width:0.3985;stroke-linecap:butt;stroke-linejoin:miter;stroke:rgb(0%,0%,0%);stroke-opacity:1;stroke-miterlimit:10;" d="M 15.812132 -69.511171 L -16.168725 -69.401149 " transform="matrix(0.994125,0,0,-0.994125,84.124515,79.002676)"></path>
<path style="fill:none;stroke-width:0.3985;stroke-linecap:butt;stroke-linejoin:miter;stroke:rgb(0%,0%,0%);stroke-opacity:1;stroke-miterlimit:10;" d="M -14.176552 -69.409008 L 13.81603 -69.507241 " transform="matrix(0.994125,0,0,-0.994125,84.124515,79.002676)"></path>
<path style="fill:none;stroke-width:0.3985;stroke-linecap:butt;stroke-linejoin:miter;stroke:rgb(0%,0%,0%);stroke-opacity:1;stroke-miterlimit:10;" d="M -14.168693 -67.416835 L 13.823888 -67.511139 " transform="matrix(0.994125,0,0,-0.994125,84.124515,79.002676)"></path>
<g clip-path="url(#clip7)" clip-rule="nonzero">
<path style="fill:none;stroke-width:0.3985;stroke-linecap:butt;stroke-linejoin:miter;stroke:rgb(0%,0%,0%);stroke-opacity:1;stroke-miterlimit:10;" d="M 15.812132 -69.511171 L 33.211226 -73.849156 " transform="matrix(0.994125,0,0,-0.994125,84.124515,79.002676)"></path>
</g>
<g clip-path="url(#clip8)" clip-rule="nonzero">
<path style="fill:none;stroke-width:0.3985;stroke-linecap:butt;stroke-linejoin:miter;stroke:rgb(0%,0%,0%);stroke-opacity:1;stroke-miterlimit:10;" d="M 33.211226 -73.849156 L 16.153984 -79.393448 " transform="matrix(0.994125,0,0,-0.994125,84.124515,79.002676)"></path>
</g>
<g clip-path="url(#clip9)" clip-rule="nonzero">
<path style="fill:none;stroke-width:0.3985;stroke-linecap:butt;stroke-linejoin:miter;stroke:rgb(0%,0%,0%);stroke-opacity:1;stroke-miterlimit:10;" d="M 16.153984 -79.393448 L 26.10306 -76.159605 " transform="matrix(0.994125,0,0,-0.994125,84.124515,79.002676)"></path>
</g>
<g clip-path="url(#clip10)" clip-rule="nonzero">
<path style="fill:none;stroke-width:0.3985;stroke-linecap:butt;stroke-linejoin:miter;stroke:rgb(0%,0%,0%);stroke-opacity:1;stroke-miterlimit:10;" d="M 15.541008 -77.495579 L 25.490083 -74.265666 " transform="matrix(0.994125,0,0,-0.994125,84.124515,79.002676)"></path>
</g>
<g clip-path="url(#clip11)" clip-rule="nonzero">
<path style="fill:none;stroke-width:0.3985;stroke-linecap:butt;stroke-linejoin:miter;stroke:rgb(0%,0%,0%);stroke-opacity:1;stroke-miterlimit:10;" d="M 16.153984 -79.393448 L -16.722761 -79.393448 " transform="matrix(0.994125,0,0,-0.994125,84.124515,79.002676)"></path>
</g>
<g clip-path="url(#clip12)" clip-rule="nonzero">
<path style="fill:none;stroke-width:0.3985;stroke-linecap:butt;stroke-linejoin:miter;stroke:rgb(0%,0%,0%);stroke-opacity:1;stroke-miterlimit:10;" d="M 33.211226 -73.849156 L 59.808894 -54.524687 " transform="matrix(0.994125,0,0,-0.994125,84.124515,79.002676)"></path>
</g>
<path style="fill:none;stroke-width:0.3985;stroke-linecap:butt;stroke-linejoin:miter;stroke:rgb(0%,0%,0%);stroke-opacity:1;stroke-miterlimit:10;" d="M 59.808894 -54.524687 L 70.351299 -40.017583 " transform="matrix(0.994125,0,0,-0.994125,84.124515,79.002676)"></path>
<path style="fill:none;stroke-width:0.3985;stroke-linecap:butt;stroke-linejoin:miter;stroke:rgb(0%,0%,0%);stroke-opacity:1;stroke-miterlimit:10;" d="M 70.351299 -40.017583 L 64.20189 -48.48137 " transform="matrix(0.994125,0,0,-0.994125,84.124515,79.002676)"></path>
<path style="fill:none;stroke-width:0.3985;stroke-linecap:butt;stroke-linejoin:miter;stroke:rgb(0%,0%,0%);stroke-opacity:1;stroke-miterlimit:10;" d="M 68.736343 -38.846641 L 62.590863 -47.310429 " transform="matrix(0.994125,0,0,-0.994125,84.124515,79.002676)"></path>
<path style="fill:none;stroke-width:0.3985;stroke-linecap:butt;stroke-linejoin:miter;stroke:rgb(0%,0%,0%);stroke-opacity:1;stroke-miterlimit:10;" d="M 59.808894 -54.524687 L 61.058422 -36.634426 " transform="matrix(0.994125,0,0,-0.994125,84.124515,79.002676)"></path>
<path style="fill:none;stroke-width:0.3985;stroke-linecap:butt;stroke-linejoin:miter;stroke:rgb(0%,0%,0%);stroke-opacity:1;stroke-miterlimit:10;" d="M 61.058422 -36.634426 L 32.331055 -44.874241 " transform="matrix(0.994125,0,0,-0.994125,84.124515,79.002676)"></path>
<path style="fill:none;stroke-width:0.3985;stroke-linecap:butt;stroke-linejoin:miter;stroke:rgb(0%,0%,0%);stroke-opacity:1;stroke-miterlimit:10;" d="M 14.931961 -20.551658 L 24.169827 7.87315 " transform="matrix(0.994125,0,0,-0.994125,84.124515,79.002676)"></path>
<path style="fill:none;stroke-width:0.3985;stroke-linecap:butt;stroke-linejoin:miter;stroke:rgb(0%,0%,0%);stroke-opacity:1;stroke-miterlimit:10;" d="M 24.169827 7.87315 L 52.594635 17.107087 " transform="matrix(0.994125,0,0,-0.994125,84.124515,79.002676)"></path>
<path style="fill:none;stroke-width:0.3985;stroke-linecap:butt;stroke-linejoin:miter;stroke:rgb(0%,0%,0%);stroke-opacity:1;stroke-miterlimit:10;" d="M 50.700696 16.49411 L 26.063766 8.490055 " transform="matrix(0.994125,0,0,-0.994125,84.124515,79.002676)"></path>
<path style="fill:none;stroke-width:0.3985;stroke-linecap:butt;stroke-linejoin:miter;stroke:rgb(0%,0%,0%);stroke-opacity:1;stroke-miterlimit:10;" d="M 50.08379 18.38805 L 25.446861 10.383995 " transform="matrix(0.994125,0,0,-0.994125,84.124515,79.002676)"></path>
<path style="fill:none;stroke-width:0.3985;stroke-linecap:butt;stroke-linejoin:miter;stroke:rgb(0%,0%,0%);stroke-opacity:1;stroke-miterlimit:10;" d="M 52.594635 17.107087 L 70.99571 -6.445346 " transform="matrix(0.994125,0,0,-0.994125,84.124515,79.002676)"></path>
<path style="fill:none;stroke-width:0.3985;stroke-linecap:butt;stroke-linejoin:miter;stroke:rgb(0%,0%,0%);stroke-opacity:1;stroke-miterlimit:10;" d="M 70.99571 -6.445346 L 61.007341 -36.823034 " transform="matrix(0.994125,0,0,-0.994125,84.124515,79.002676)"></path>
<path style="fill:none;stroke-width:0.3985;stroke-linecap:butt;stroke-linejoin:miter;stroke:rgb(0%,0%,0%);stroke-opacity:1;stroke-miterlimit:10;" d="M 61.632105 -34.929095 L 70.374875 -8.339286 " transform="matrix(0.994125,0,0,-0.994125,84.124515,79.002676)"></path>
<path style="fill:none;stroke-width:0.3985;stroke-linecap:butt;stroke-linejoin:miter;stroke:rgb(0%,0%,0%);stroke-opacity:1;stroke-miterlimit:10;" d="M 59.738166 -34.30826 L 68.480936 -7.714521 " transform="matrix(0.994125,0,0,-0.994125,84.124515,79.002676)"></path>
<g clip-path="url(#clip13)" clip-rule="nonzero">
<path style="fill:none;stroke-width:0.3985;stroke-linecap:butt;stroke-linejoin:miter;stroke:rgb(0%,0%,0%);stroke-opacity:1;stroke-miterlimit:10;" d="M 70.99571 -6.445346 L 80.500771 8.765109 " transform="matrix(0.994125,0,0,-0.994125,84.124515,79.002676)"></path>
</g>
<g clip-path="url(#clip14)" clip-rule="nonzero">
<path style="fill:none;stroke-width:0.3985;stroke-linecap:butt;stroke-linejoin:miter;stroke:rgb(0%,0%,0%);stroke-opacity:1;stroke-miterlimit:10;" d="M 80.500771 8.765109 L 80.500771 -9.168375 " transform="matrix(0.994125,0,0,-0.994125,84.124515,79.002676)"></path>
</g>
<g clip-path="url(#clip15)" clip-rule="nonzero">
<path style="fill:none;stroke-width:0.3985;stroke-linecap:butt;stroke-linejoin:miter;stroke:rgb(0%,0%,0%);stroke-opacity:1;stroke-miterlimit:10;" d="M 80.500771 -9.168375 L 80.500771 1.291514 " transform="matrix(0.994125,0,0,-0.994125,84.124515,79.002676)"></path>
</g>
<path style="fill:none;stroke-width:0.3985;stroke-linecap:butt;stroke-linejoin:miter;stroke:rgb(0%,0%,0%);stroke-opacity:1;stroke-miterlimit:10;" d="M 78.504669 -9.168375 L 78.504669 1.291514 " transform="matrix(0.994125,0,0,-0.994125,84.124515,79.002676)"></path>
<g clip-path="url(#clip16)" clip-rule="nonzero">
<path style="fill:none;stroke-width:0.3985;stroke-linecap:butt;stroke-linejoin:miter;stroke:rgb(0%,0%,0%);stroke-opacity:1;stroke-miterlimit:10;" d="M 80.500771 -9.168375 L 70.339511 -40.438022 " transform="matrix(0.994125,0,0,-0.994125,84.124515,79.002676)"></path>
</g>
<g clip-path="url(#clip17)" clip-rule="nonzero">
<path style="fill:none;stroke-width:0.3985;stroke-linecap:butt;stroke-linejoin:miter;stroke:rgb(0%,0%,0%);stroke-opacity:1;stroke-miterlimit:10;" d="M 80.500771 8.765109 L 70.339511 40.034756 " transform="matrix(0.994125,0,0,-0.994125,84.124515,79.002676)"></path>
</g>
<path style="fill:none;stroke-width:0.3985;stroke-linecap:butt;stroke-linejoin:miter;stroke:rgb(0%,0%,0%);stroke-opacity:1;stroke-miterlimit:10;" d="M 70.339511 40.034756 L 59.797106 54.54186 " transform="matrix(0.994125,0,0,-0.994125,84.124515,79.002676)"></path>
<path style="fill:none;stroke-width:0.3985;stroke-linecap:butt;stroke-linejoin:miter;stroke:rgb(0%,0%,0%);stroke-opacity:1;stroke-miterlimit:10;" d="M 59.797106 54.54186 L 65.946515 46.078073 " transform="matrix(0.994125,0,0,-0.994125,84.124515,79.002676)"></path>
<path style="fill:none;stroke-width:0.3985;stroke-linecap:butt;stroke-linejoin:miter;stroke:rgb(0%,0%,0%);stroke-opacity:1;stroke-miterlimit:10;" d="M 58.186079 53.370918 L 64.335488 44.907131 " transform="matrix(0.994125,0,0,-0.994125,84.124515,79.002676)"></path>
<path style="fill:none;stroke-width:0.3985;stroke-linecap:butt;stroke-linejoin:miter;stroke:rgb(0%,0%,0%);stroke-opacity:1;stroke-miterlimit:10;" d="M 70.339511 40.034756 L 53.710566 46.749989 " transform="matrix(0.994125,0,0,-0.994125,84.124515,79.002676)"></path>
<path style="fill:none;stroke-width:0.3985;stroke-linecap:butt;stroke-linejoin:miter;stroke:rgb(0%,0%,0%);stroke-opacity:1;stroke-miterlimit:10;" d="M 53.710566 46.749989 L 52.669293 16.879185 " transform="matrix(0.994125,0,0,-0.994125,84.124515,79.002676)"></path>
</g>
</svg>